<svg xmlns="http://www.w3.org/2000/svg" xmlns:xlink="http://www.w3.org/1999/xlink" version="1.1" x="0px" y="0px" viewBox="0 0 24 24" style="enable-background:new 0 0 100 100;" xml:space="preserve">
  <path d="M87,65H63.6c-1.8,0-3.4-0.8-4.6-2.1c-1.1-1.3-1.6-3-1.4-4.7v0c1.1-7.1,3.2-12.5,4.8-15.8c0.7-1.5,1.8-3.1,3.3-5  c6.3-8,5.6-19.4-1.6-26.5C60.4,7.1,55.3,5,50,5c-5.3,0-10.4,2.1-14.1,5.9C28.7,18,28,29.4,34.3,37.4c1.5,1.9,2.5,3.5,3.3,5  c1.6,3.3,3.7,8.7,4.8,15.8c0.3,1.7-0.2,3.4-1.4,4.7c-1.1,1.3-2.8,2.1-4.6,2.1H13c-4.4,0-8,3.6-8,8v10c0,1.1,0.9,2,2,2h4v8  c0,1.1,0.9,2,2,2h74c1.1,0,2-0.9,2-2v-8h4c1.1,0,2-0.9,2-2V73C95,68.6,91.4,65,87,65z M85,91H15v-6h70V91z M91,81h-4H13H9v-8  c0-2.2,1.8-4,4-4h23.4c2.9,0,5.7-1.3,7.6-3.5c1.9-2.2,2.7-5.1,2.3-7.9c-1.1-7.6-3.4-13.4-5.1-16.9c-0.9-1.8-2-3.6-3.7-5.7  c-5-6.4-4.5-15.5,1.2-21.2c3-3,7-4.7,11.3-4.7c4.3,0,8.3,1.7,11.3,4.7c5.7,5.7,6.3,14.9,1.2,21.2c-1.7,2.2-2.9,3.9-3.7,5.7  c-1.7,3.5-4,9.4-5.1,16.9c-0.4,2.8,0.4,5.7,2.3,7.9c1.9,2.2,4.7,3.5,7.6,3.5H87c2.2,0,4,1.8,4,4V81z"/>
</svg>