<?xml version="1.0" encoding="UTF-8"?>
<svg version="1.1" xmlns="http://www.w3.org/2000/svg" width="512" height="512">
<path d="M0 0 C0.62970703 0.20898926 1.25941406 0.41797852 1.90820312 0.63330078 C18.0351289 6.10874481 31.09431425 14.93594131 43 27 C43.89589844 27.88558594 44.79179687 28.77117188 45.71484375 29.68359375 C56.19693602 40.55331347 63.36340329 53.68267555 68 68 C68.31541748 68.96220459 68.31541748 68.96220459 68.63720703 69.94384766 C74.79563798 89.7356697 74.41908824 113.32668326 68 133 C67.79632813 133.64001953 67.59265625 134.28003906 67.3828125 134.93945312 C63.44998874 146.87144621 56.72482176 156.95843787 49.77734375 167.3125 C33.87439647 191.32566178 22.67114376 217.72943353 17 246 C16.83773926 246.80759766 16.67547852 247.61519531 16.50830078 248.44726562 C14.40094907 259.46899781 13.68999139 270.41165309 13.5625 281.625 C13.54018311 282.78644531 13.51786621 283.94789063 13.49487305 285.14453125 C13.5263893 296.98782775 16.76622778 306.37491979 25 315 C34.82349643 324.37781795 45.24442876 326.60510577 58.51098633 326.49829102 C60.46939201 326.50656921 60.46939201 326.50656921 62.46736145 326.51501465 C65.28561754 326.52687952 68.10350046 326.52654299 70.92176247 326.51642036 C75.39187876 326.50071769 79.86162014 326.51463601 84.33171082 326.53245544 C93.02041771 326.56315355 101.70900737 326.56478229 110.39775848 326.56280518 C121.44577546 326.56140892 132.49370144 326.57201295 143.54165286 326.6113829 C147.97104556 326.6261841 152.40009893 326.62614637 156.82949603 326.61390507 C158.92922083 326.61029873 161.02880745 326.61354763 163.12852478 326.61968994 C165.66886676 326.62698907 168.20927249 326.6239974 170.74957275 326.60771179 C185.49456143 326.69453036 199.27327723 329.42029249 210.3125 339.75 C236.52961452 367.95488755 223 415.09631649 223 448 C54.04 448 -114.92 448 -289 448 C-289 355.79805353 -289 355.79805353 -279 343 C-278.52175781 342.38382812 -278.04351562 341.76765625 -277.55078125 341.1328125 C-269.74261804 332.28224966 -258.3620712 328.48088886 -247 327 C-242.47810966 326.73616228 -237.97005877 326.72925597 -233.44140625 326.74462891 C-231.42991114 326.73907152 -229.41841603 326.7335098 -227.40692139 326.72778487 C-225.26678033 326.72347325 -223.12668598 326.72390698 -220.98654175 326.72560501 C-216.50471671 326.72846323 -212.02304609 326.71399431 -207.54125977 326.69662476 C-194.80454796 326.64983256 -182.06784879 326.62566114 -169.33105469 326.61914062 C-162.27931265 326.61537842 -155.22774777 326.5972627 -148.17608166 326.56404626 C-143.73076842 326.54395534 -139.28591586 326.54140006 -134.84057617 326.55232644 C-131.41314802 326.55556858 -127.98597078 326.53279565 -124.55859375 326.51416016 C-123.34372284 326.52233261 -122.12885193 326.53050507 -120.87716675 326.53892517 C-107.80857269 326.41295907 -98.59374562 322.33949075 -89.25 313.30859375 C-78.29351071 301.50297654 -79.42804695 286.77188967 -79.82080078 271.67724609 C-81.25363389 242.27488598 -91.28416255 212.72589534 -105.01318359 186.86767578 C-105.99286958 185.01349522 -106.94590594 183.14757501 -107.89453125 181.27734375 C-111.42333209 174.39957085 -115.29766381 167.8854744 -119.5625 161.4375 C-135.81575183 136.77364971 -142.80100423 108.10782749 -136.87060547 78.66552734 C-136.0708796 75.3728629 -135.08876916 72.21220716 -134 69 C-133.78569336 68.3596582 -133.57138672 67.71931641 -133.35058594 67.05957031 C-124.5071317 41.25007141 -105.19433235 19.00067083 -80.8203125 6.71191406 C-56.13560913 -5.14442927 -26.2543126 -8.88990965 0 0 Z " fill="#000000" transform="translate(289,4)"/>
<path d="M0 0 C149.16 0 298.32 0 452 0 C452 10.23 452 20.46 452 31 C302.84 31 153.68 31 0 31 C0 20.77 0 10.54 0 0 Z " fill="#000000" transform="translate(30,481)"/>
</svg>
